# xmcd CD database file
# Copyright (C) 1993-1998 Ti Kan
#
# Track frame offsets:
# 150
# 10620
# 26173
# 40238
# 55593
# 68478
# 85470
# 99170
# 113475
# 126973
# 139810
# 155703
#
# Disc length: 2263 seconds
#
# Revision: 0
# Processed by: cddbd v1.4b41PL1 Copyright (c) Steve Scherf et al.
# Submitted via: inCDius 1.1
#
DISCID=9208d50c
DTITLE=Kris Kristofferson - 36 All-Time Greatest Hits-Disk 3: Easy
DYEAR=1900
DGENRE=
TTITLE0=Help Me Make It Through The Night
TTITLE1=Give It Time to be Tender
TTITLE2=Nobody Wins
TTITLE3=For the Good Times
TTITLE4=Once More with Feeling
TTITLE5=Loving Her Was Easier
TTITLE6=When I loved Her
TTITLE7=I'd Rather Be Sorry
TTITLE8=The Best Of All Possbile Worlds
TTITLE9=Lay Me Down (and Love the World Away)
TTITLE10=Easy, Come On
TTITLE11=Stranger
EXTD=
EXTT0=
EXTT1=
EXTT2=
EXTT3=
EXTT4=
EXTT5=
EXTT6=
EXTT7=
EXTT8=
EXTT9=
EXTT10=
EXTT11=
PLAYORDER=
